<svg width="123" height="97" viewBox="0 0 123 97" fill="none" xmlns="http://www.w3.org/2000/svg">
<path d="M53.1016 10.6014C47.0223 10.6014 28.844 10.6014 34.703 10.6014C28.441 11.1777 22.9053 13.2894 17.6544 16.7495C12.4035 20.2096 8.08692 24.9113 5.0871 30.4381C2.08728 35.9649 0.496787 42.1463 0.456504 48.4346C0.416221 54.7229 1.92739 60.9241 4.85616 66.4889C7.78493 72.0537 12.0409 76.8103 17.2471 80.3374C22.4532 83.8645 28.4489 86.0532 34.703 86.7097C39.5869 87.2223 43.8357 86.7097 53.1016 86.7097V65.282C50.5586 66.3163 39.6824 65.5686 36.9521 65.282C34.2218 64.9954 31.6043 64.0399 29.3315 62.5001C27.0587 60.9603 25.2007 58.8838 23.9222 56.4544C22.6436 54.025 21.9839 51.3178 22.0014 48.5726C22.019 45.8274 22.7134 43.1288 24.023 40.716C25.3326 38.3033 27.217 36.2507 29.5094 34.7401C31.8017 33.2296 34.4312 32.3077 37.165 32.0561C39.8987 31.8045 53.1016 32.0561 53.1016 32.0561L53.1016 10.6014Z" fill="#607D8B"/>
<path d="M67.1656 88.2384C71.164 88.3484 78.8702 88.3234 85.1561 88.1449C91.4421 87.9664 97.5869 86.2404 103.046 83.1198C108.506 79.9992 113.112 75.5803 116.456 70.2546C119.799 64.9289 121.778 58.8607 122.217 52.5876C122.655 46.3144 121.54 40.0299 118.969 34.2908C116.399 28.5517 112.453 23.5351 107.48 19.6853C102.508 15.8356 96.663 13.2715 90.463 12.2203C83.425 11.027 81.2577 11.6361 72.4669 11.0782L71.1157 32.3688C73.7191 31.4977 84.1546 33.0036 86.8613 33.4625C89.568 33.9214 92.1197 35.0408 94.2904 36.7215C96.4611 38.4021 98.1838 40.5922 99.306 43.0976C100.428 45.6031 100.915 48.3467 100.724 51.0853C100.532 53.8239 99.6684 56.473 98.2086 58.798C96.7488 61.123 94.7382 63.0521 92.3547 64.4144C89.9713 65.7768 88.263 66.8107 84.2507 67.2004C81.5066 67.2784 70.5364 67.466 67.7432 67.2463L67.1656 88.2384Z" fill="#607D8B"/>
<path d="M26.8405 96.1799H48.0845L96.9455 0.582256H75.7016L26.8405 96.1799Z" fill="#607D8B"/>
</svg>
