<svg width="167" height="167" viewBox="0 0 167 167" fill="none" xmlns="http://www.w3.org/2000/svg">
<g filter="url(#filter0_b)">
<circle cx="83.9858" cy="84.0138" r="74.5" transform="rotate(1.60607 83.9858 84.0138)" stroke="white"/>
</g>
<g filter="url(#filter1_b)">
<circle cx="83.5" cy="83.5" r="79" transform="rotate(1.60607 83.5 83.5)" stroke="white" stroke-width="3"/>
</g>
<path d="M75.6593 42.0318C69.5823 41.8614 51.4112 41.352 57.2679 41.5162C50.9922 41.9167 45.3995 43.8724 40.0537 47.184C34.7078 50.4956 30.2612 55.0745 27.1077 60.515C23.9541 65.9556 22.191 72.0899 21.9745 78.3747C21.758 84.6594 23.0947 90.9005 25.8664 96.5452C28.638 102.19 32.759 107.064 37.8643 110.736C42.9696 114.407 48.9015 116.763 55.1348 117.595C60.0024 118.244 64.2639 117.851 73.5261 118.11L74.1267 96.691C71.5557 97.6536 60.7048 96.6013 57.9836 96.2383C55.2624 95.8753 52.6727 94.8468 50.444 93.244C48.2152 91.6411 46.4161 89.5133 45.2062 87.049C43.9962 84.5848 43.4126 81.8601 43.5071 79.1165C43.6016 76.3728 44.3713 73.6948 45.748 71.3197C47.1248 68.9445 49.066 66.9456 51.3998 65.4999C53.7335 64.0542 56.3879 63.2063 59.1276 63.0315C61.8673 62.8566 75.0579 63.4781 75.0579 63.4781L75.6593 42.0318Z" fill="white"/>
<path d="M91.8428 119.597C98.9816 119.797 104.943 119.647 111.219 119.246C117.494 118.846 123.574 116.904 128.92 113.592C134.266 110.28 138.713 105.701 141.866 100.261C145.02 94.8203 146.783 88.686 146.999 82.4013C147.216 76.1166 145.879 69.8754 143.107 64.2308C140.336 58.5861 136.215 53.712 131.11 50.0404C126.004 46.3688 120.072 44.0129 113.839 43.1814C106.763 42.2375 104.619 42.9229 95.8138 42.676L95.2159 64.0011C97.7869 63.0384 108.269 64.1746 110.99 64.5376C113.711 64.9006 116.301 65.9291 118.53 67.532C120.759 69.1349 122.558 71.2627 123.768 73.7269C124.978 76.1912 125.561 78.9158 125.467 81.6595C125.372 84.4031 124.603 87.0811 123.226 89.4563C121.849 91.8314 119.908 93.8304 117.574 95.2761C115.24 96.7218 112.586 97.5696 109.846 97.7445C107.107 97.9193 95.2375 98.4821 92.4383 98.3613L91.8428 119.597Z" fill="white"/>
<path d="M47.01 126.841L68.2456 127.436L119.767 33.2455L98.5312 32.6501L47.01 126.841Z" fill="white"/>
<defs>
<filter id="filter0_b" x="2.91319" y="2.94121" width="162.145" height="162.145" filterUnits="userSpaceOnUse" color-interpolation-filters="sRGB">
<feFlood flood-opacity="0" result="BackgroundImageFix"/>
<feGaussianBlur in="BackgroundImage" stdDeviation="2"/>
<feComposite in2="SourceAlpha" operator="in" result="effect1_backgroundBlur"/>
<feBlend mode="normal" in="SourceGraphic" in2="effect1_backgroundBlur" result="shape"/>
</filter>
<filter id="filter1_b" x="-3.22459" y="-3.22459" width="173.449" height="173.449" filterUnits="userSpaceOnUse" color-interpolation-filters="sRGB">
<feFlood flood-opacity="0" result="BackgroundImageFix"/>
<feGaussianBlur in="BackgroundImage" stdDeviation="2"/>
<feComposite in2="SourceAlpha" operator="in" result="effect1_backgroundBlur"/>
<feBlend mode="normal" in="SourceGraphic" in2="effect1_backgroundBlur" result="shape"/>
</filter>
</defs>
</svg>
